<svg width="33" height="33" viewBox="0 0 33 33" fill="none" xmlns="http://www.w3.org/2000/svg">
<g id="Icon / Easter Bunny" clip-path="url(#clip0_444_11227)">
<path id="Vector" d="M23.4288 18.5616C25.3992 15.78 28.3133 11.9038 28.3133 5.49605C28.3133 2.26734 27.088 0.528809 25.0018 0.528809C22.4519 0.528809 18.445 3.93965 16.723 10.4136C15.0011 3.93965 10.9942 0.528809 8.44431 0.528809C6.35807 0.528809 5.13281 2.26734 5.13281 5.49605C5.13281 11.9038 8.04693 15.78 10.0173 18.5616C10.0173 18.5616 5.96069 22.1938 5.96069 26.1929C5.96069 29.8521 8.92447 32.5288 12.5837 32.5288C15.1501 32.5288 16.723 31.6016 16.723 31.6016C16.723 31.6016 18.296 32.5288 20.8624 32.5288C24.5216 32.5288 27.4854 29.8521 27.4854 26.1929C27.4854 22.1938 23.4288 18.5616 23.4288 18.5616ZM12.3353 16.1111C10.663 13.6275 8.44431 10.662 8.44431 5.49605C8.44431 4.66818 8.54365 4.17145 8.643 3.88998C10.1994 4.40326 14.0076 7.07074 14.2394 15.2336C13.4612 15.4323 12.8486 15.7303 12.3353 16.1111ZM14.2394 23.7368C13.7758 23.7368 13.4115 23.1738 13.4115 22.495C13.4115 21.8161 13.7758 21.2532 14.2394 21.2532C14.703 21.2532 15.0673 21.8161 15.0673 22.495C15.0673 23.1738 14.703 23.7368 14.2394 23.7368ZM16.723 28.2901C15.8124 28.2901 15.0673 27.098 15.0673 26.6343C15.0673 26.1707 15.8124 25.8065 16.723 25.8065C17.6337 25.8065 18.3788 26.1707 18.3788 26.6343C18.3788 27.098 17.6337 28.2901 16.723 28.2901ZM19.2067 23.7368C18.7431 23.7368 18.3788 23.1738 18.3788 22.495C18.3788 21.8161 18.7431 21.2532 19.2067 21.2532C19.6703 21.2532 20.0345 21.8161 20.0345 22.495C20.0345 23.1738 19.6703 23.7368 19.2067 23.7368ZM19.2067 15.2336C19.4385 7.07074 23.2467 4.40326 24.8031 3.88998C24.9024 4.17145 25.0018 4.66818 25.0018 5.49605C25.0018 10.662 22.7831 13.6275 21.1108 16.1111C20.5975 15.7303 19.9849 15.4323 19.2067 15.2336Z" fill="#6F61C9"/>
</g>
<defs>
<clipPath id="clip0_444_11227">
<rect width="32" height="32" fill="white" transform="translate(0.722656 0.528809)"/>
</clipPath>
</defs>
</svg>
