<svg width="33" height="33" viewBox="0 0 33 33" fill="none" xmlns="http://www.w3.org/2000/svg">
<g id="Icon / Easter Egg" clip-path="url(#clip0_444_11231)">
<path id="Vector" d="M7.93226 7.61344C7.90934 7.54701 7.91805 7.47421 7.95399 7.41383C10.2617 3.5373 13.2973 0.528809 16.7238 0.528809C20.153 0.528809 23.1908 3.54204 25.4991 7.42299C25.5318 7.47799 25.5421 7.54364 25.5249 7.60528C25.4047 8.0363 24.8371 9.76624 23.4687 9.76624C21.9056 9.76624 20.7805 8.59867 20.0591 8.19173C19.3378 7.78478 18.5367 7.51402 17.702 7.395C16.8674 7.27598 16.0155 7.31105 15.1955 7.49819C14.3755 7.68534 13.6035 8.02087 12.9239 8.48549C12.4057 8.8377 11.5421 9.98223 9.97896 9.98223C8.82114 9.98223 8.09455 8.08391 7.93226 7.61344ZM22.0755 26.0824C21.9796 26.1713 21.8315 26.1713 21.7356 26.0824L16.8938 21.5946C16.7979 21.5058 16.6498 21.5058 16.5539 21.5946L11.7121 26.0824C11.6162 26.1713 11.468 26.1713 11.3722 26.0824L6.53034 21.5946C6.43447 21.5058 6.28632 21.5058 6.19045 21.5946L4.27803 23.3672C4.20967 23.4306 4.18203 23.5268 4.20784 23.6164C5.07926 26.6395 7.19 29.2305 10.0937 30.8347C13.044 32.4647 16.5717 32.9426 19.902 32.1634C22.1629 31.6276 24.2267 30.5378 25.8768 29.0083C27.4885 27.5144 28.6477 25.6549 29.2395 23.6166C29.2655 23.5269 29.2379 23.4305 29.1694 23.367L27.2572 21.5946C27.1614 21.5058 27.0132 21.5058 26.9173 21.5946L22.0755 26.0824ZM11.3722 22.6884C11.468 22.7773 11.6162 22.7773 11.7121 22.6884L16.5539 18.2006C16.6498 18.1118 16.7979 18.1118 16.8938 18.2006L21.7356 22.6884C21.8315 22.7773 21.9796 22.7773 22.0755 22.6884L26.9173 18.2006C27.0132 18.1118 27.1614 18.1118 27.2572 18.2006L29.2209 20.0207C29.3862 20.174 29.652 20.0474 29.6332 19.8227C29.3509 16.4596 28.4391 13.1594 26.9239 10.0796C26.8645 9.95894 26.6833 9.96989 26.6341 10.095C26.2946 10.9568 25.2593 13.1361 23.4687 13.1377C21.2368 13.1396 20.3934 9.76624 16.7238 9.76624C13.0543 9.76624 12.2109 13.1396 9.97896 13.1377C8.18613 13.1361 7.15244 10.9577 6.81352 10.0955C6.76429 9.97031 6.58298 9.95929 6.52358 10.08C5.00848 13.1597 4.09674 16.4597 3.8145 19.8227C3.79564 20.0474 4.06144 20.174 4.2268 20.0207L6.19045 18.2006C6.28632 18.1118 6.43446 18.1118 6.53034 18.2006L11.3722 22.6884Z" fill="#6F61C9"/>
</g>
<defs>
<clipPath id="clip0_444_11231">
<rect width="32" height="32" fill="white" transform="translate(0.722656 0.528809)"/>
</clipPath>
</defs>
</svg>
