<svg width="33" height="33" viewBox="0 0 33 33" fill="none" xmlns="http://www.w3.org/2000/svg">
<g id="Icon / Free Button" clip-path="url(#clip0_444_11216)">
<path id="Vector" d="M32.7227 28.9733C32.7227 29.9162 32.3481 30.8206 31.6813 31.4874C31.0145 32.1542 30.1101 32.5288 29.1671 32.5288H4.27821C3.33522 32.5288 2.43085 32.1542 1.76405 31.4874C1.09726 30.8206 0.722656 29.9162 0.722656 28.9733V4.08436C0.722656 3.14137 1.09726 2.237 1.76405 1.57021C2.43085 0.903411 3.33522 0.528809 4.27821 0.528809L29.1671 0.528809C30.1101 0.528809 31.0145 0.903411 31.6813 1.57021C32.3481 2.237 32.7227 3.14137 32.7227 4.08436V28.9733Z" fill="#6F61C9"/>
<g id="FREE">
<path d="M9.02312 11.8365C9.16119 11.8365 9.27312 11.9484 9.27312 12.0865V13.108C9.27312 13.246 9.16119 13.358 9.02312 13.358H5.55141C5.41334 13.358 5.30141 13.4699 5.30141 13.608V15.5181C5.30141 15.6562 5.41334 15.7681 5.55141 15.7681H8.09502C8.23309 15.7681 8.34502 15.8801 8.34502 16.0181V17.0127C8.34502 17.1508 8.23309 17.2627 8.09502 17.2627H5.55141C5.41334 17.2627 5.30141 17.3746 5.30141 17.5127V20.9848C5.30141 21.1228 5.18948 21.2348 5.05141 21.2348H3.64063C3.50255 21.2348 3.39062 21.1228 3.39062 20.9848V12.0865C3.39062 11.9484 3.50255 11.8365 3.64062 11.8365H9.02312Z" fill="white"/>
<path d="M14.9843 21.2348C14.8947 21.2348 14.812 21.1869 14.7674 21.1092L12.8097 17.6979C12.7651 17.6203 12.6824 17.5724 12.5929 17.5724H12.0868C11.9488 17.5724 11.8368 17.6843 11.8368 17.8224V20.9848C11.8368 21.1228 11.7249 21.2348 11.5868 21.2348H10.176C10.038 21.2348 9.92604 21.1228 9.92604 20.9848V12.0865C9.92604 11.9484 10.038 11.8365 10.176 11.8365H13.5019C14.239 11.8365 14.8668 11.9666 15.3854 12.2269C15.9041 12.4783 16.2908 12.8239 16.5456 13.2637C16.8094 13.6946 16.9414 14.1793 16.9414 14.7179C16.9414 15.3373 16.7594 15.8983 16.3954 16.401C16.0873 16.8189 15.652 17.1275 15.0895 17.3268C14.9325 17.3824 14.8567 17.5671 14.9421 17.71L16.8242 20.8564C16.9239 21.0231 16.8039 21.2348 16.6097 21.2348H14.9843ZM11.8368 15.9086C11.8368 16.0467 11.9488 16.1586 12.0868 16.1586H13.4337C13.9523 16.1586 14.339 16.0374 14.5938 15.7951C14.8486 15.5437 14.976 15.1981 14.976 14.7583C14.976 14.3274 14.8486 13.9953 14.5938 13.7619C14.339 13.5195 13.9523 13.3984 13.4337 13.3984H12.0868C11.9488 13.3984 11.8368 13.5103 11.8368 13.6484V15.9086Z" fill="white"/>
<path d="M20.1284 13.358C19.9903 13.358 19.8784 13.4699 19.8784 13.608V15.4643C19.8784 15.6023 19.9903 15.7143 20.1284 15.7143H22.8358C22.9738 15.7143 23.0858 15.8262 23.0858 15.9643V16.9588C23.0858 17.0969 22.9738 17.2088 22.8358 17.2088H20.1284C19.9903 17.2088 19.8784 17.3208 19.8784 17.4588V19.4498C19.8784 19.5879 19.9903 19.6998 20.1284 19.6998H23.2452C23.3833 19.6998 23.4952 19.8117 23.4952 19.9498V20.9848C23.4952 21.1228 23.3833 21.2348 23.2452 21.2348H18.2176C18.0795 21.2348 17.9676 21.1228 17.9676 20.9848V12.073C17.9676 11.9349 18.0795 11.823 18.2176 11.823H23.2452C23.3833 11.823 23.4952 11.9349 23.4952 12.073V13.108C23.4952 13.246 23.3833 13.358 23.2452 13.358H20.1284Z" fill="white"/>
<path d="M26.6904 13.358C26.5524 13.358 26.4404 13.4699 26.4404 13.608V15.4643C26.4404 15.6023 26.5524 15.7143 26.6904 15.7143H29.3978C29.5359 15.7143 29.6478 15.8262 29.6478 15.9643V16.9588C29.6478 17.0969 29.5359 17.2088 29.3978 17.2088H26.6904C26.5524 17.2088 26.4404 17.3208 26.4404 17.4588V19.4498C26.4404 19.5879 26.5524 19.6998 26.6904 19.6998H29.8073C29.9454 19.6998 30.0573 19.8117 30.0573 19.9498V20.9848C30.0573 21.1228 29.9454 21.2348 29.8073 21.2348H24.7797C24.6416 21.2348 24.5297 21.1228 24.5297 20.9848V12.073C24.5297 11.9349 24.6416 11.823 24.7797 11.823H29.8073C29.9454 11.823 30.0573 11.9349 30.0573 12.073V13.108C30.0573 13.246 29.9454 13.358 29.8073 13.358H26.6904Z" fill="white"/>
</g>
</g>
<defs>
<clipPath id="clip0_444_11216">
<rect width="32" height="32" fill="white" transform="translate(0.722656 0.528809)"/>
</clipPath>
</defs>
</svg>
