<svg width="33" height="33" viewBox="0 0 33 33" fill="none" xmlns="http://www.w3.org/2000/svg">
<g id="Icon / Parking">
<path id="P" d="M28.7827 12.4634C28.7827 14.2892 28.4084 15.7237 27.4076 17.3062C26.2164 19.1899 25.6489 19.2101 23.2186 20.0877C21.1288 20.8424 19.7364 21.1411 17.4598 21.2691C16.205 21.3397 14.4723 21.1432 13.481 21.0085C13.0802 20.954 12.7232 21.2764 12.7444 21.6804C12.8051 22.8372 12.5489 24.902 12.5489 26.9686C12.5489 29.1777 12.7884 30.7512 12.731 31.8237C12.7143 32.1354 12.4717 32.3848 12.1604 32.4079C11.3963 32.4649 9.97746 32.554 8.93271 32.5221C7.88967 32.4903 6.71753 32.5128 5.91125 32.4079C5.58553 32.3656 5.42061 31.8796 5.36742 31.5506C5.07951 29.7697 4.97266 28.4255 4.97266 26.2978C4.97266 23.1462 4.97266 19.7374 4.97266 16.578C4.97266 13.978 5.17655 11.3766 5.23986 8.56186C5.30411 5.70549 5.59116 2.67528 5.62451 1.59115C5.63471 1.25952 5.8994 0.997209 6.23101 0.986493C7.36886 0.949725 9.60511 0.678599 11.3954 0.655347C13.7635 0.62459 15.3679 0.386652 17.7221 0.655403C20.2467 0.943607 22.099 1.28234 23.8349 2.15031C25.5708 3.01827 26.8728 4.21547 27.7408 5.74189C28.6087 7.26832 28.7827 10.4881 28.7827 12.4634ZM15.6157 15.1071C17.7552 15.0471 19.3318 15.1755 20.3862 14.316C21.4491 13.4496 21.6825 12.7502 21.6825 10.9946C21.6825 9.23901 20.6291 8.69231 19.9107 8.00392C19.1924 7.31553 18.3428 7.04384 16.8762 7.04384H13.3703C13.0073 7.04384 12.7184 7.34876 12.7326 7.71147C12.7651 8.53853 12.7984 9.96425 12.701 10.9946C12.5949 12.1175 12.5602 13.5199 12.5489 14.316C12.5453 14.5688 12.6929 14.7864 12.9073 14.8865C13.0733 14.964 13.2646 14.9548 13.4469 14.9723C13.9671 15.0219 15.0943 15.1217 15.6157 15.1071Z" fill="#6F61C9"/>
</g>
</svg>
