<svg width="33" height="33" viewBox="0 0 33 33" fill="none" xmlns="http://www.w3.org/2000/svg">
    <g id="Icon / Shirt" clip-path="url(#clip0_444_11220)">
        <path id="Vector"
            d="M22.1316 1.52274L22.2851 1.51466L22.4656 1.52489L22.6472 1.55612L22.8285 1.60832L31.6514 4.83685C31.9403 4.93993 32.1938 5.12321 32.3822 5.36522C32.5707 5.60723 32.6862 5.89793 32.7153 6.20326L32.7227 6.39059L32.0815 13.097C32.0732 13.4921 31.9201 13.8703 31.6514 14.16C31.3828 14.4498 31.0171 14.6308 30.6238 14.6688L30.4348 14.6762L28.3143 13.73V28.6681C28.2975 29.4819 27.9737 30.2593 27.4079 30.8445C26.842 31.4297 26.0759 31.7793 25.2631 31.8234L25.0209 31.8264L8.28355 31.7193C7.46971 31.7025 6.69228 31.3787 6.10711 30.8129C5.52193 30.247 5.17227 29.4809 5.12821 28.6681L5.12521 28.426L5.73344 13.2576L2.92162 14.16C2.52657 14.1517 2.1483 13.9987 1.85857 13.73C1.56885 13.4613 1.38781 13.0956 1.34979 12.7023L1.34245 12.5134L0.722656 5.7932C0.728969 5.4865 0.822597 5.18795 0.99256 4.93257C1.16252 4.67719 1.40178 4.47557 1.68227 4.35134L1.85791 4.28563L11.1908 1.30371C11.435 1.22802 11.6936 1.21143 11.9454 1.25532C12.1973 1.29921 12.4351 1.40231 12.6392 1.55613C12.8434 1.70995 13.0081 1.91009 13.1197 2.14005C13.2314 2.37 13.2868 2.6232 13.2814 2.87877C13.2601 3.71576 13.5651 4.52825 14.1318 5.14458C14.6985 5.76091 15.6451 6.08392 16.7305 6.14026C17.8518 6.19845 18.8644 5.91125 19.4991 5.36522C20.1339 4.81919 20.5842 4.17011 20.6608 3.33634L20.6834 2.94955L20.7146 2.76786L20.7788 2.55298L20.8532 2.38833L20.937 2.24163L21.0498 2.09393L21.1638 1.96722C21.2548 1.88307 21.3505 1.80976 21.4508 1.74732L21.6074 1.66507L21.775 1.59758L21.9503 1.54961L22.1316 1.52274Z"
            fill="#6F61C9" />
    </g>
    <defs>
        <clipPath id="clip0_444_11220">
            <rect width="32" height="32" fill="white" transform="translate(0.722656 0.528809)" />
        </clipPath>
    </defs>
</svg>