<svg width="33" height="33" viewBox="0 0 33 33" fill="none" xmlns="http://www.w3.org/2000/svg">
<g id="Icon / Stroller" clip-path="url(#clip0_444_11234)">
<path id="Vector" d="M25.6115 29.1604C25.6115 30.0537 25.2369 30.9105 24.5701 31.5422C23.9034 32.1739 22.999 32.5288 22.056 32.5288C21.113 32.5288 20.2086 32.1739 19.5418 31.5422C18.875 30.9105 18.5004 30.0537 18.5004 29.1604C18.5004 28.267 18.875 27.4103 19.5418 26.7786C20.2086 26.1469 21.113 25.792 22.056 25.792C22.999 25.792 23.9034 26.1469 24.5701 26.7786C25.2369 27.4103 25.6115 28.267 25.6115 29.1604ZM7.83377 29.1604C7.83377 30.0537 7.45917 30.9105 6.79237 31.5422C6.12557 32.1739 5.2212 32.5288 4.27821 32.5288C3.33522 32.5288 2.43085 32.1739 1.76405 31.5422C1.09726 30.9105 0.722656 30.0537 0.722656 29.1604C0.722656 28.267 1.09726 27.4103 1.76405 26.7786C2.43085 26.1469 3.33522 25.792 4.27821 25.792C5.2212 25.792 6.12557 26.1469 6.79237 26.7786C7.45917 27.4103 7.83377 28.267 7.83377 29.1604ZM26.696 0.528809C25.5227 0.528809 24.616 0.865651 23.8338 1.37091C22.6249 2.06144 21.8427 3.2067 21.1138 4.01513L5.54043 21.3288C4.56266 22.4235 5.38043 24.1078 6.89155 24.1078H20.2782C21.2212 24.1078 22.1256 23.7529 22.7924 23.1212C23.4592 22.4895 23.8338 21.6327 23.8338 20.7393V6.41336C23.8338 6.28981 23.8799 6.17077 23.9611 6.07762C24.918 4.9796 25.5377 3.89723 26.696 3.89723C28.0649 3.89723 29.1671 5.00881 29.1671 6.42355V6.76565C29.1671 7.04179 29.391 7.26565 29.6671 7.26565H32.2227C32.4988 7.26565 32.7227 7.04179 32.7227 6.76565V6.42355C32.7227 3.15618 30.056 0.528809 26.696 0.528809ZM11.8481 0.848808C8.81018 0.959501 5.78795 1.8571 3.14926 3.55554C2.88284 3.72703 2.85488 4.10156 3.08489 4.31946L10.7303 11.5625C10.9339 11.7554 11.255 11.7446 11.4434 11.5368C12.5993 10.2615 16.4466 6.01668 19.2798 2.89074C19.5081 2.63887 19.4226 2.23891 19.1072 2.11227C17.2515 1.36731 15.2694 0.938936 13.2525 0.848808C12.7903 0.831966 12.3103 0.831966 11.8481 0.848808Z" fill="#6F61C9"/>
</g>
<defs>
<clipPath id="clip0_444_11234">
<rect width="32" height="32" fill="white" transform="translate(0.722656 0.528809)"/>
</clipPath>
</defs>
</svg>
