<svg width="33" height="33" viewBox="0 0 33 33" fill="none" xmlns="http://www.w3.org/2000/svg">
<g id="Icon / Utensils Fork and Spoon">
<path id="Vector" d="M26.4654 15.5923V30.7596C26.4654 30.7596 26.6535 32.5288 24.851 32.5288C23.051 32.5288 22.7126 30.9382 22.7126 30.9382V15.5899C20.4138 14.5641 18.7492 11.745 18.7492 8.39002C18.7492 4.17099 21.3639 0.750862 24.5903 0.750862C27.8192 0.750862 30.4364 4.17099 30.4364 8.39002C30.4364 11.7474 28.7693 14.5665 26.4654 15.5923ZM10.6994 16.0292V30.2528C10.6994 30.2528 10.7395 32.3333 8.94703 32.3333C7.15459 32.3333 7.15459 30.2938 7.15459 30.2938V15.9906C7.15459 15.9906 3.42682 15.322 3.10343 11.7908C2.77754 8.25727 3.38922 2.17732 3.38922 2.17732C3.38922 2.17732 3.63239 0.919816 4.48975 0.919816C5.34461 0.919816 5.50756 2.29559 5.50756 2.29559V9.71028C5.45742 10.1882 6.01897 10.7288 6.85126 10.7288C7.99441 10.7288 7.99441 9.94682 7.99441 9.94682V2.37283C7.99441 2.37283 8.15736 0.803962 9.13505 0.803962C10.1127 0.803962 10.1127 2.41144 10.1127 2.41144V10.0337C10.1127 10.0337 10.0852 10.9147 11.1381 10.9147C12.4392 10.9147 12.4141 10.0916 12.4141 10.0916V2.37283C12.4141 2.37283 12.3138 0.528809 13.7001 0.528809C14.8007 0.528809 14.8408 2.33421 14.8408 2.33421C14.8408 2.33421 15.3675 8.42301 14.9461 11.7908C14.6016 14.5435 13.838 14.9696 10.6994 16.0292Z" fill="#6F61C9"/>
</g>
</svg>
